<?xml version="1.0" encoding="utf-8"?>
<!-- Generator: Adobe Illustrator 21.0.0, SVG Export Plug-In . SVG Version: 6.00 Build 0)  -->
<svg version="1.1" id="Layer_1" xmlns="http://www.w3.org/2000/svg" xmlns:xlink="http://www.w3.org/1999/xlink" x="0px" y="0px"
	 viewBox="0 0 31.6 37.2" style="enable-background:new 0 0 31.6 37.2;" xml:space="preserve">
<style type="text/css">
	.st0{fill-rule:evenodd;clip-rule:evenodd;fill:#3597D3;}
	.st1{opacity:0.85;fill-rule:evenodd;clip-rule:evenodd;fill:#FFFFFF;}
</style>
<path class="st0" d="M16,0C16,0,16,0,16,0C16,0,16,0,16,0c-2.8,0-4.9,2-5,4.5c0,0.1,0,0.2,0,0.3c0,0.3,0.1,0.6,0.2,1c0,0,0,0,0,0
	c0,0,0,0.1,0,0.1c0.1,0.2,0.2,0.4,0.3,0.6C11.7,6.7,11.9,7,12,7.2c1,1.5,2.5,2.1,2.6,4.3c0,0.1,0,0.3,0,0.5c0,0.3,0,0.5,0,0.8
	c0,0.3,0,0.6,0,0.9c0,0.3,0,0.6,0,0.9c0,0.3,0,0.6,0,0.8c0,0.2,0,0.4,0,0.5c-0.1,2.2-1.6,2.8-2.6,4.3c-0.2,0.3-0.3,0.5-0.5,0.8
	c-0.1,0.2-0.2,0.4-0.3,0.6c0,0,0,0.1,0,0.1c0,0,0,0,0,0c-0.1,0.3-0.2,0.6-0.2,1c0,0.1,0,0.2,0,0.3c0,2.5,2.2,4.5,4.9,4.5
	c0,0,0,0,0,0c0,0,0,0,0,0c2.7,0,4.9-2,4.9-4.5c0-0.1,0-0.2,0-0.3c0-0.3-0.1-0.6-0.2-1c0,0,0,0,0,0c0,0,0-0.1,0-0.1
	c-0.1-0.2-0.2-0.4-0.3-0.6c-0.1-0.2-0.3-0.5-0.5-0.8c-1-1.5-2.5-2.1-2.6-4.3c0-0.3,0-0.8,0-1.3c0-0.3,0-0.6,0-0.8c0-0.3,0-0.7,0-1.1
	c0-0.5,0-1,0-1.3c0.1-2.2,1.6-2.8,2.6-4.3c0.2-0.3,0.3-0.5,0.5-0.8c0.1-0.2,0.2-0.4,0.3-0.6c0,0,0-0.1,0-0.1c0,0,0,0,0,0
	c0.1-0.3,0.2-0.6,0.2-1c0-0.1,0-0.2,0-0.3C20.9,2,18.7,0,16,0z"/>
<path class="st1" d="M26.7,8.9C26.7,8.9,26.7,8.9,26.7,8.9C26.7,8.9,26.7,8.9,26.7,8.9c-2.8,0-4.9,2-5,4.5c0,0.1,0,0.2,0,0.3
	c0,0.3,0.1,0.6,0.2,1c0,0,0,0,0,0c0,0,0,0.1,0,0.1c0.1,0.2,0.2,0.4,0.3,0.6c0.1,0.2,0.3,0.5,0.5,0.8c1,1.5,2.5,2.1,2.6,4.3
	c0,0.1,0,0.3,0,0.5c0,0.3,0,0.5,0,0.8c0,0.3,0,0.6,0,0.9c0,0.3,0,0.6,0,0.9c0,0.3,0,0.6,0,0.8c0,0.2,0,0.4,0,0.5
	c-0.1,2.2-1.6,2.8-2.6,4.3c-0.2,0.3-0.3,0.5-0.5,0.8c-0.1,0.2-0.2,0.4-0.3,0.6c0,0,0,0.1,0,0.1c0,0,0,0,0,0c-0.1,0.3-0.2,0.6-0.2,1
	c0,0.1,0,0.2,0,0.3c0,2.5,2.2,4.5,4.9,4.5c0,0,0,0,0,0c0,0,0,0,0,0c2.7,0,4.9-2,4.9-4.5c0-0.1,0-0.2,0-0.3c0-0.3-0.1-0.6-0.2-1
	c0,0,0,0,0,0c0,0,0-0.1,0-0.1c-0.1-0.2-0.2-0.4-0.3-0.6c-0.1-0.2-0.3-0.5-0.5-0.8c-1-1.5-2.5-2.1-2.6-4.3c0-0.3,0-0.8,0-1.3
	c0-0.3,0-0.6,0-0.8c0-0.3,0-0.7,0-1.1c0-0.5,0-1,0-1.3c0.1-2.2,1.6-2.8,2.6-4.3c0.2-0.3,0.3-0.5,0.5-0.8c0.1-0.2,0.2-0.4,0.3-0.6
	c0,0,0-0.1,0-0.1c0,0,0,0,0,0c0.1-0.3,0.2-0.6,0.2-1c0-0.1,0-0.2,0-0.3C31.6,10.9,29.4,8.9,26.7,8.9z"/>
<path class="st1" d="M5,9.7C4.9,9.7,4.9,9.7,5,9.7C4.9,9.7,4.9,9.7,5,9.7c-2.8,0-4.9,2-5,4.5c0,0.1,0,0.2,0,0.3c0,0.3,0.1,0.6,0.2,1
	c0,0,0,0,0,0c0,0,0,0.1,0,0.1c0.1,0.2,0.2,0.4,0.3,0.6C0.6,16.4,0.8,16.7,1,17c1,1.5,2.5,2.1,2.6,4.3c0,0.1,0,0.3,0,0.5
	c0,0.3,0,0.5,0,0.8c0,0.3,0,0.6,0,0.9c0,0.3,0,0.6,0,0.9c0,0.3,0,0.6,0,0.8c0,0.2,0,0.4,0,0.5C3.5,27.9,1.9,28.5,1,30
	c-0.2,0.3-0.3,0.5-0.5,0.8c-0.1,0.2-0.2,0.4-0.3,0.6c0,0,0,0.1,0,0.1c0,0,0,0,0,0c-0.1,0.3-0.2,0.6-0.2,1c0,0.1,0,0.2,0,0.3
	c0,2.5,2.2,4.5,4.9,4.5c0,0,0,0,0,0c0,0,0,0,0,0c2.7,0,4.9-2,4.9-4.5c0-0.1,0-0.2,0-0.3c0-0.3-0.1-0.6-0.2-1c0,0,0,0,0,0
	c0,0,0-0.1,0-0.1c-0.1-0.2-0.2-0.4-0.3-0.6C9.2,30.5,9,30.3,8.9,30c-1-1.5-2.5-2.1-2.6-4.3c0-0.3,0-0.8,0-1.3c0-0.3,0-0.6,0-0.8
	c0-0.3,0-0.7,0-1.1c0-0.5,0-1,0-1.3c0.1-2.2,1.6-2.8,2.6-4.3c0.2-0.3,0.3-0.5,0.5-0.8c0.1-0.2,0.2-0.4,0.3-0.6c0,0,0-0.1,0-0.1
	c0,0,0,0,0,0c0.1-0.3,0.2-0.6,0.2-1c0-0.1,0-0.2,0-0.3C9.8,11.7,7.6,9.7,5,9.7z"/>
</svg>
