<?xml version="1.0" encoding="UTF-8"?>
<svg width="20px" height="23px" viewBox="0 0 20 23" version="1.1" xmlns="http://www.w3.org/2000/svg" xmlns:xlink="http://www.w3.org/1999/xlink">
    <!-- Generator: Sketch 42 (36781) - http://www.bohemiancoding.com/sketch -->
    <title>Page 1</title>
    <desc>Created with Sketch.</desc>
    <defs>
        <polygon id="path-1" points="0.331120127 0.449032258 6.11883007 0.449032258 6.11883007 16.8414491 0.331120127 16.8414491 0.331120127 0.449032258"></polygon>
        <polygon id="path-3" points="6.2516129 0.38453598 6.2516129 16.7765955 0.46415445 16.7765955 0.46415445 0.38453598 6.2516129 0.38453598"></polygon>
        <polygon id="path-5" points="6.2516129 0.38453598 6.2516129 16.7765955 0.46415445 16.7765955 0.46415445 0.38453598 6.2516129 0.38453598"></polygon>
    </defs>
    <g id="Page-1" stroke="none" stroke-width="1" fill="none" fill-rule="evenodd">
        <g id="Desktop-HD" transform="translate(-20.000000, -19.000000)">
            <g id="Page-1" transform="translate(19.000000, 19.000000)">
                <g id="Group-3" transform="translate(7.883871, 0.146680)">
                    <mask id="mask-2" fill="white">
                        <use xlink:href="#path-1"></use>
                    </mask>
                    <g id="Clip-2"></g>
                    <path d="M3.24448413,0.448794045 C3.23801187,0.448794045 3.23153961,0.449389578 3.22447897,0.449389578 C3.21800671,0.449389578 3.21153445,0.448794045 3.20506219,0.448794045 C1.61759381,0.448794045 0.344912516,1.65713151 0.331379613,3.14715633 C0.330791226,3.20611414 0.333733161,3.26566749 0.337851871,3.32522084 C0.348442839,3.50924069 0.383157677,3.69326055 0.454940903,3.89633747 C0.45552929,3.8987196 0.456706065,3.9022928 0.457882839,3.90527047 C0.46376671,3.92254094 0.470827355,3.94040695 0.477299613,3.95886849 C0.521428645,4.07797519 0.574971871,4.19529529 0.636752516,4.30844665 C0.709124129,4.44780149 0.797970581,4.59847146 0.905057032,4.76462531 C1.47167381,5.64363275 2.37896671,6.0354938 2.43721703,7.32482382 C2.44192413,7.40879404 2.44192413,7.50884367 2.44133574,7.61842184 C2.44015897,7.76968734 2.43721703,7.93941439 2.43721703,8.10616377 C2.43662865,8.30268983 2.43662865,8.48968734 2.43662865,8.64035732 C2.43662865,8.79221836 2.43662865,8.98338462 2.43721703,9.1840794 C2.43721703,9.35082878 2.44015897,9.5199603 2.44133574,9.67241687 C2.44192413,9.78199504 2.44133574,9.88144913 2.43721703,9.96482382 C2.37896671,11.2547494 1.47167381,11.6466104 0.905057032,12.5262134 C0.797970581,12.6917717 0.709712516,12.8424417 0.636752516,12.9817965 C0.574971871,13.0955434 0.521428645,13.212268 0.477299613,13.3313747 C0.470827355,13.3498362 0.46376671,13.3677022 0.457882839,13.3849727 C0.456706065,13.3885459 0.45552929,13.390928 0.454940903,13.3950968 C0.383157677,13.5975782 0.348442839,13.7810025 0.337851871,13.9656179 C0.333144774,14.0245757 0.330202839,14.084129 0.331379613,14.1436824 C0.344912516,15.6337072 1.61759381,16.8414491 3.20506219,16.8414491 C3.21094606,16.8414491 3.21800671,16.8408536 3.22447897,16.8414491 L3.24448413,16.8414491 C4.83195252,16.8414491 6.10463381,15.6337072 6.11816671,14.1442779 C6.11934348,14.084129 6.11581316,14.0245757 6.11169445,13.9656179 C6.1005151,13.7810025 6.06638865,13.5975782 5.99519381,13.3945012 C5.99401703,13.3915236 5.99284026,13.3885459 5.99166348,13.3849727 C5.98519123,13.3677022 5.97871897,13.3498362 5.97224671,13.3313747 C5.92811768,13.212268 5.87457445,13.0955434 5.81279381,12.981201 C5.73983381,12.8424417 5.65157574,12.6923672 5.54448929,12.5262134 C4.97787252,11.6466104 4.07822865,11.2613002 4.01938994,9.97197022 C4.01115252,9.77901737 4.01880155,9.48661042 4.01997832,9.20849628 C4.01997832,9.03221836 4.02056671,8.86010918 4.01997832,8.71420347 C4.02056671,8.54864516 4.02056671,8.31876923 4.01938994,8.0817469 C4.01880155,7.80422829 4.01115252,7.51182134 4.01997832,7.31827295 C4.07822865,6.02894293 4.97787252,5.64363275 5.54507768,4.76462531 C5.65157574,4.59847146 5.73983381,4.44780149 5.81279381,4.30844665 C5.87457445,4.19529529 5.92811768,4.07797519 5.97224671,3.95886849 C5.97871897,3.94040695 5.98577961,3.92313648 5.99166348,3.90527047 C5.99225187,3.90169727 5.99401703,3.89931514 5.99519381,3.89633747 C6.06638865,3.69326055 6.1005151,3.50983623 6.11228284,3.32522084 C6.11640155,3.26507196 6.11934348,3.20611414 6.1187551,3.14715633 C6.10463381,1.65713151 4.83195252,0.449389578 3.24448413,0.448794045" id="Fill-1" fill="#FEFEFE" mask="url(#mask-2)"></path>
                </g>
                <g id="Group-6" transform="translate(14.767742, 5.506481)">
                    <mask id="mask-4" fill="white">
                        <use xlink:href="#path-3"></use>
                    </mask>
                    <g id="Clip-5"></g>
                    <path d="M3.37751845,0.38453598 C3.37104619,0.38453598 3.36457394,0.385131514 3.35751329,0.385131514 C3.35104103,0.385131514 3.34398039,0.38453598 3.33809652,0.38453598 C1.75062813,0.38453598 0.477946839,1.59287345 0.464413935,3.08230273 C0.463825548,3.14185608 0.466767484,3.20140943 0.470886194,3.26036725 C0.481477161,3.44498263 0.516192,3.62900248 0.587386839,3.8320794 C0.588563613,3.83446154 0.589740387,3.83803474 0.590328774,3.84101241 C0.596801032,3.85828288 0.603861677,3.87614888 0.610333935,3.89401489 C0.654462968,4.01371712 0.708006194,4.13103722 0.769786839,4.24418859 C0.842158452,4.38354342 0.931004903,4.5342134 1.03809135,4.69977171 C1.60470813,5.57937469 2.51200103,5.97123573 2.57025135,7.26056576 C2.57495845,7.34453598 2.57495845,7.44458561 2.57437006,7.55416377 C2.57319329,7.70542928 2.57025135,7.87515633 2.57025135,8.04131017 C2.56966297,8.23843176 2.56966297,8.42542928 2.56966297,8.57609926 C2.56966297,8.7279603 2.56966297,8.91912655 2.57025135,9.12041687 C2.57025135,9.28657072 2.57319329,9.45570223 2.57437006,9.60756328 C2.57495845,9.71773697 2.57437006,9.81719107 2.57025135,9.90056576 C2.51200103,11.1910868 1.60470813,11.5823524 1.03809135,12.4619553 C0.931004903,12.6281092 0.842746839,12.7781836 0.769786839,12.9175385 C0.708006194,13.0306898 0.654462968,13.1480099 0.610333935,13.2671166 C0.603861677,13.2855782 0.596801032,13.3028486 0.590917161,13.3207146 C0.589152,13.3242878 0.588563613,13.32667 0.587975226,13.3302432 C0.516192,13.5327246 0.481477161,13.7167444 0.470886194,13.9007643 C0.466179097,13.9603176 0.463237161,14.019871 0.464413935,14.0794243 C0.477946839,15.5694491 1.75062813,16.7765955 3.33809652,16.7765955 C3.34398039,16.7765955 3.35104103,16.776 3.35751329,16.7765955 L3.37751845,16.7765955 C4.96498684,16.7765955 6.23766813,15.5688536 6.25120103,14.0794243 C6.25178942,14.019871 6.24884748,13.9603176 6.24472877,13.9007643 C6.23354942,13.7167444 6.19942297,13.5327246 6.12822813,13.3302432 C6.12705135,13.32667 6.12528619,13.3242878 6.12410942,13.3213102 C6.11822555,13.3028486 6.11175329,13.2849826 6.10528103,13.2677122 C6.061152,13.1486055 6.00760877,13.0306898 5.94582813,12.9175385 C5.87286813,12.7787792 5.78461006,12.6281092 5.67752361,12.4613598 C5.11031845,11.5823524 4.21126297,11.1970422 4.15242426,9.90771216 C4.14418684,9.71416377 4.15183587,9.42235236 4.15301265,9.14423821 L4.15301265,8.64994541 C4.15360103,8.48498263 4.15301265,8.25451117 4.15242426,8.01748883 C4.15183587,7.73997022 4.14418684,7.44696774 4.15301265,7.25341935 C4.21126297,5.96468486 5.11090684,5.57937469 5.678112,4.70036725 C5.78461006,4.5342134 5.87286813,4.38354342 5.94582813,4.24418859 C6.00760877,4.13103722 6.061152,4.01371712 6.10528103,3.89461042 C6.11175329,3.87614888 6.11881394,3.85828288 6.12410942,3.84101241 C6.12528619,3.83743921 6.12705135,3.83505707 6.12822813,3.8320794 C6.19883458,3.62900248 6.23354942,3.44557816 6.24531716,3.26096278 C6.24884748,3.2008139 6.25237781,3.14185608 6.25178942,3.08289826 C6.23766813,1.59287345 4.96498684,0.385131514 3.37751845,0.38453598" id="Fill-4" fill="#FEFEFE" mask="url(#mask-4)"></path>
                </g>
                <g id="Group-6-Copy" transform="translate(0.767742, 5.506481)">
                    <mask id="mask-6" fill="white">
                        <use xlink:href="#path-5"></use>
                    </mask>
                    <g id="Clip-5"></g>
                    <path d="M3.37751845,0.38453598 C3.37104619,0.38453598 3.36457394,0.385131514 3.35751329,0.385131514 C3.35104103,0.385131514 3.34398039,0.38453598 3.33809652,0.38453598 C1.75062813,0.38453598 0.477946839,1.59287345 0.464413935,3.08230273 C0.463825548,3.14185608 0.466767484,3.20140943 0.470886194,3.26036725 C0.481477161,3.44498263 0.516192,3.62900248 0.587386839,3.8320794 C0.588563613,3.83446154 0.589740387,3.83803474 0.590328774,3.84101241 C0.596801032,3.85828288 0.603861677,3.87614888 0.610333935,3.89401489 C0.654462968,4.01371712 0.708006194,4.13103722 0.769786839,4.24418859 C0.842158452,4.38354342 0.931004903,4.5342134 1.03809135,4.69977171 C1.60470813,5.57937469 2.51200103,5.97123573 2.57025135,7.26056576 C2.57495845,7.34453598 2.57495845,7.44458561 2.57437006,7.55416377 C2.57319329,7.70542928 2.57025135,7.87515633 2.57025135,8.04131017 C2.56966297,8.23843176 2.56966297,8.42542928 2.56966297,8.57609926 C2.56966297,8.7279603 2.56966297,8.91912655 2.57025135,9.12041687 C2.57025135,9.28657072 2.57319329,9.45570223 2.57437006,9.60756328 C2.57495845,9.71773697 2.57437006,9.81719107 2.57025135,9.90056576 C2.51200103,11.1910868 1.60470813,11.5823524 1.03809135,12.4619553 C0.931004903,12.6281092 0.842746839,12.7781836 0.769786839,12.9175385 C0.708006194,13.0306898 0.654462968,13.1480099 0.610333935,13.2671166 C0.603861677,13.2855782 0.596801032,13.3028486 0.590917161,13.3207146 C0.589152,13.3242878 0.588563613,13.32667 0.587975226,13.3302432 C0.516192,13.5327246 0.481477161,13.7167444 0.470886194,13.9007643 C0.466179097,13.9603176 0.463237161,14.019871 0.464413935,14.0794243 C0.477946839,15.5694491 1.75062813,16.7765955 3.33809652,16.7765955 C3.34398039,16.7765955 3.35104103,16.776 3.35751329,16.7765955 L3.37751845,16.7765955 C4.96498684,16.7765955 6.23766813,15.5688536 6.25120103,14.0794243 C6.25178942,14.019871 6.24884748,13.9603176 6.24472877,13.9007643 C6.23354942,13.7167444 6.19942297,13.5327246 6.12822813,13.3302432 C6.12705135,13.32667 6.12528619,13.3242878 6.12410942,13.3213102 C6.11822555,13.3028486 6.11175329,13.2849826 6.10528103,13.2677122 C6.061152,13.1486055 6.00760877,13.0306898 5.94582813,12.9175385 C5.87286813,12.7787792 5.78461006,12.6281092 5.67752361,12.4613598 C5.11031845,11.5823524 4.21126297,11.1970422 4.15242426,9.90771216 C4.14418684,9.71416377 4.15183587,9.42235236 4.15301265,9.14423821 L4.15301265,8.64994541 C4.15360103,8.48498263 4.15301265,8.25451117 4.15242426,8.01748883 C4.15183587,7.73997022 4.14418684,7.44696774 4.15301265,7.25341935 C4.21126297,5.96468486 5.11090684,5.57937469 5.678112,4.70036725 C5.78461006,4.5342134 5.87286813,4.38354342 5.94582813,4.24418859 C6.00760877,4.13103722 6.061152,4.01371712 6.10528103,3.89461042 C6.11175329,3.87614888 6.11881394,3.85828288 6.12410942,3.84101241 C6.12528619,3.83743921 6.12705135,3.83505707 6.12822813,3.8320794 C6.19883458,3.62900248 6.23354942,3.44557816 6.24531716,3.26096278 C6.24884748,3.2008139 6.25237781,3.14185608 6.25178942,3.08289826 C6.23766813,1.59287345 4.96498684,0.385131514 3.37751845,0.38453598" id="Fill-4" fill="#FEFEFE" mask="url(#mask-6)"></path>
                </g>
            </g>
        </g>
    </g>
</svg>