<?xml version="1.0" encoding="utf-8"?>
<!-- Generator: Adobe Illustrator 20.1.0, SVG Export Plug-In . SVG Version: 6.00 Build 0)  -->
<svg version="1.1" id="Layer_1" xmlns="http://www.w3.org/2000/svg" xmlns:xlink="http://www.w3.org/1999/xlink" x="0px" y="0px"
	 viewBox="0 0 239.2 37.2" style="enable-background:new 0 0 239.2 37.2;" xml:space="preserve">
<style type="text/css">
	.st0{fill:#FFFFFF;}
	.st1{fill-rule:evenodd;clip-rule:evenodd;fill:#FFFFFF;}
</style>
<g>
	<path class="st0" d="M41,35.6V7.3h17.8v2.2H43.4V20h15.1v2.2H43.4v13.4H41z"/>
	<path class="st0" d="M62.6,25.3c0-5.9,4.1-10.7,9.8-10.7c6.2,0,9.6,4.9,9.6,10.8v0.6H65c0.2,4.4,3.2,8.1,8,8.1c2.6,0,4.9-1,6.7-2.8
		l1.1,1.4c-2,2.1-4.6,3.3-8,3.3C66.8,36.1,62.6,31.6,62.6,25.3z M72.3,16.5c-4.8,0-7.2,4.2-7.4,7.8h14.8
		C79.7,20.8,77.4,16.5,72.3,16.5z"/>
	<path class="st0" d="M85.7,25.3c0-5.9,4.1-10.7,9.8-10.7c6.2,0,9.6,4.9,9.6,10.8v0.6H88c0.2,4.4,3.2,8.1,8,8.1c2.6,0,4.9-1,6.7-2.8
		l1.1,1.4c-2,2.1-4.6,3.3-8,3.3C89.9,36.1,85.7,31.6,85.7,25.3z M95.4,16.5c-4.8,0-7.2,4.2-7.4,7.8h14.8
		C102.8,20.8,100.5,16.5,95.4,16.5z"/>
	<path class="st0" d="M124.8,35.6v-3.3c-1.4,2.1-4,3.8-7.1,3.8c-5.4,0-9.1-4.2-9.1-10.7c0-6.5,3.7-10.8,9.1-10.8
		c2.9,0,5.5,1.5,7.1,3.8V7.3h2.2v28.3H124.8z M124.8,30.5V20.3c-1.2-2-3.8-3.7-6.7-3.7c-4.5,0-7.1,3.8-7.1,8.8c0,5,2.6,8.7,7.1,8.7
		C121,34.1,123.6,32.4,124.8,30.5z"/>
	<path class="st0" d="M130.5,31.6l3.3-4.7c2,2.1,5.1,3.9,8.9,3.9c3.3,0,4.9-1.5,4.9-3.1c0-4.9-16.2-1.5-16.2-12.1
		c0-4.7,4-8.6,10.7-8.6c4.5,0,8.2,1.4,10.9,3.9l-3.3,4.5c-2.3-2.1-5.3-3.1-8.2-3.1c-2.5,0-4,1.1-4,2.8c0,4.4,16.1,1.4,16.1,12
		c0,5.2-3.7,9.1-11.2,9.1C137,36.1,133.1,34.3,130.5,31.6z"/>
	<path class="st0" d="M160.6,30.5V19.8h-3.4v-4.7h3.4V9.5h5.3v5.6h4.1v4.7h-4.1V29c0,1.3,0.7,2.3,1.9,2.3c0.8,0,1.6-0.3,1.9-0.6
		l1.1,4.1c-0.8,0.7-2.2,1.3-4.5,1.3C162.6,36.1,160.6,34.1,160.6,30.5z"/>
	<path class="st0" d="M187.6,35.6v-2.2c-1.4,1.7-3.8,2.7-6.4,2.7c-3.2,0-7-2.2-7-6.8c0-4.8,3.8-6.6,7-6.6c2.7,0,5.1,0.9,6.4,2.5
		v-2.6c0-2.1-1.8-3.4-4.5-3.4c-2.1,0-4.2,0.8-5.9,2.4l-2.1-3.8c2.5-2.2,5.7-3.2,8.9-3.2c4.7,0,8.9,1.9,8.9,7.8v13.2H187.6z
		 M187.6,30.7v-2.5c-0.9-1.2-2.6-1.8-4.3-1.8c-2.1,0-3.8,1.1-3.8,3.1s1.7,3.1,3.8,3.1C185,32.5,186.7,31.9,187.6,30.7z"/>
	<path class="st0" d="M197,25.3c0-6.3,4.5-10.7,10.8-10.7c4.2,0,6.7,1.8,8,3.7l-3.5,3.3c-1-1.4-2.4-2.2-4.3-2.2
		c-3.2,0-5.5,2.4-5.5,5.9c0,3.6,2.3,6,5.5,6c1.9,0,3.3-0.8,4.3-2.2l3.5,3.3c-1.3,1.9-3.9,3.7-8,3.7C201.5,36.1,197,31.6,197,25.3z"
		/>
	<path class="st0" d="M232.5,35.6l-5.4-7.9l-2.4,2.6v5.3h-5.3V7.3h5.3v16.9l7.7-9.1h6.6l-8,9.3l8.3,11.2H232.5z"/>
</g>
<path class="st1" d="M14.5,0C14.5,0,14.5,0,14.5,0C14.5,0,14.5,0,14.5,0c-2.8,0-4.9,2-5,4.5c0,0.1,0,0.2,0,0.3c0,0.3,0.1,0.6,0.2,1
	c0,0,0,0,0,0c0,0,0,0.1,0,0.1c0.1,0.2,0.2,0.4,0.3,0.6c0.1,0.2,0.3,0.5,0.5,0.8c1,1.5,2.5,2.1,2.6,4.3c0,0.1,0,0.3,0,0.5
	c0,0.3,0,0.5,0,0.8c0,0.3,0,0.6,0,0.9c0,0.3,0,0.6,0,0.9c0,0.3,0,0.6,0,0.8c0,0.2,0,0.4,0,0.5c-0.1,2.2-1.6,2.8-2.6,4.3
	c-0.2,0.3-0.3,0.5-0.5,0.8c-0.1,0.2-0.2,0.4-0.3,0.6c0,0,0,0.1,0,0.1c0,0,0,0,0,0c-0.1,0.3-0.2,0.6-0.2,1c0,0.1,0,0.2,0,0.3
	c0,2.5,2.2,4.5,4.9,4.5c0,0,0,0,0,0c0,0,0,0,0,0c2.7,0,4.9-2,4.9-4.5c0-0.1,0-0.2,0-0.3c0-0.3-0.1-0.6-0.2-1c0,0,0,0,0,0
	c0,0,0-0.1,0-0.1c-0.1-0.2-0.2-0.4-0.3-0.6c-0.1-0.2-0.3-0.5-0.5-0.8c-1-1.5-2.5-2.1-2.6-4.3c0-0.3,0-0.8,0-1.3c0-0.3,0-0.6,0-0.8
	c0-0.3,0-0.7,0-1.1c0-0.5,0-1,0-1.3c0.1-2.2,1.6-2.8,2.6-4.3c0.2-0.3,0.3-0.5,0.5-0.8c0.1-0.2,0.2-0.4,0.3-0.6c0,0,0-0.1,0-0.1
	c0,0,0,0,0,0c0.1-0.3,0.2-0.6,0.2-1c0-0.1,0-0.2,0-0.3C19.4,2,17.2,0,14.5,0z"/>
<path class="st1" d="M23.7,8.9C23.7,8.9,23.7,8.9,23.7,8.9C23.7,8.9,23.7,8.9,23.7,8.9c-2.8,0-4.9,2-5,4.5c0,0.1,0,0.2,0,0.3
	c0,0.3,0.1,0.6,0.2,1c0,0,0,0,0,0c0,0,0,0.1,0,0.1c0.1,0.2,0.2,0.4,0.3,0.6c0.1,0.2,0.3,0.5,0.5,0.8c1,1.5,2.5,2.1,2.6,4.3
	c0,0.1,0,0.3,0,0.5c0,0.3,0,0.5,0,0.8c0,0.3,0,0.6,0,0.9c0,0.3,0,0.6,0,0.9c0,0.3,0,0.6,0,0.8c0,0.2,0,0.4,0,0.5
	c-0.1,2.2-1.6,2.8-2.6,4.3c-0.2,0.3-0.3,0.5-0.5,0.8c-0.1,0.2-0.2,0.4-0.3,0.6c0,0,0,0.1,0,0.1c0,0,0,0,0,0c-0.1,0.3-0.2,0.6-0.2,1
	c0,0.1,0,0.2,0,0.3c0,2.5,2.2,4.5,4.9,4.5c0,0,0,0,0,0c0,0,0,0,0,0c2.7,0,4.9-2,4.9-4.5c0-0.1,0-0.2,0-0.3c0-0.3-0.1-0.6-0.2-1
	c0,0,0,0,0,0c0,0,0-0.1,0-0.1c-0.1-0.2-0.2-0.4-0.3-0.6c-0.1-0.2-0.3-0.5-0.5-0.8c-1-1.5-2.5-2.1-2.6-4.3c0-0.3,0-0.8,0-1.3
	c0-0.3,0-0.6,0-0.8c0-0.3,0-0.7,0-1.1c0-0.5,0-1,0-1.3c0.1-2.2,1.6-2.8,2.6-4.3c0.2-0.3,0.3-0.5,0.5-0.8c0.1-0.2,0.2-0.4,0.3-0.6
	c0,0,0-0.1,0-0.1c0,0,0,0,0,0c0.1-0.3,0.2-0.6,0.2-1c0-0.1,0-0.2,0-0.3C28.6,10.9,26.4,8.9,23.7,8.9z"/>
<path class="st1" d="M5,9.7C4.9,9.7,4.9,9.7,5,9.7C4.9,9.7,4.9,9.7,5,9.7c-2.8,0-4.9,2-5,4.5c0,0.1,0,0.2,0,0.3c0,0.3,0.1,0.6,0.2,1
	c0,0,0,0,0,0c0,0,0,0.1,0,0.1c0.1,0.2,0.2,0.4,0.3,0.6C0.6,16.4,0.8,16.7,1,17c1,1.5,2.5,2.1,2.6,4.3c0,0.1,0,0.3,0,0.5
	c0,0.3,0,0.5,0,0.8c0,0.3,0,0.6,0,0.9c0,0.3,0,0.6,0,0.9c0,0.3,0,0.6,0,0.8c0,0.2,0,0.4,0,0.5C3.5,27.9,1.9,28.5,1,30
	c-0.2,0.3-0.3,0.5-0.5,0.8c-0.1,0.2-0.2,0.4-0.3,0.6c0,0,0,0.1,0,0.1c0,0,0,0,0,0c-0.1,0.3-0.2,0.6-0.2,1c0,0.1,0,0.2,0,0.3
	c0,2.5,2.2,4.5,4.9,4.5c0,0,0,0,0,0c0,0,0,0,0,0c2.7,0,4.9-2,4.9-4.5c0-0.1,0-0.2,0-0.3c0-0.3-0.1-0.6-0.2-1c0,0,0,0,0,0
	c0,0,0-0.1,0-0.1c-0.1-0.2-0.2-0.4-0.3-0.6C9.2,30.5,9,30.3,8.9,30c-1-1.5-2.5-2.1-2.6-4.3c0-0.3,0-0.8,0-1.3c0-0.3,0-0.6,0-0.8
	c0-0.3,0-0.7,0-1.1c0-0.5,0-1,0-1.3c0.1-2.2,1.6-2.8,2.6-4.3c0.2-0.3,0.3-0.5,0.5-0.8c0.1-0.2,0.2-0.4,0.3-0.6c0,0,0-0.1,0-0.1
	c0,0,0,0,0,0c0.1-0.3,0.2-0.6,0.2-1c0-0.1,0-0.2,0-0.3C9.8,11.7,7.6,9.7,5,9.7z"/>
</svg>
