<?xml version="1.0" standalone="no"?>
<!DOCTYPE svg PUBLIC "-//W3C//DTD SVG 20010904//EN"
 "http://www.w3.org/TR/2001/REC-SVG-20010904/DTD/svg10.dtd">
<svg version="1.0" xmlns="http://www.w3.org/2000/svg"
 width="16.000000pt" height="16.000000pt" viewBox="0 0 16.000000 16.000000"
 preserveAspectRatio="xMidYMid meet">
<metadata>
Created by potrace 1.11, written by Peter Selinger 2001-2013
</metadata>
<g transform="translate(0.000000,16.000000) scale(0.001600,-0.001600)"
fill="#000000" stroke="none">
<path d="M4890 9994 c-468 -59 -852 -321 -1040 -708 -161 -330 -161 -676 0
-990 112 -220 205 -347 428 -587 219 -235 301 -354 357 -520 53 -153 55 -190
55 -884 0 -694 -2 -731 -55 -884 -53 -157 -140 -288 -321 -481 -236 -253 -299
-334 -409 -525 -116 -200 -163 -347 -172 -530 -31 -620 443 -1162 1100 -1259
280 -42 573 -1 814 114 465 221 744 665 720 1145 -9 183 -56 330 -172 530
-110 191 -176 276 -405 520 -180 192 -271 329 -324 487 -52 153 -56 221 -56
873 0 617 4 710 41 844 53 197 130 311 423 627 142 153 214 248 307 404 126
214 177 365 186 555 30 595 -412 1127 -1038 1250 -82 16 -364 28 -439 19z"/>
<path d="M7555 7594 c-339 -57 -646 -241 -847 -508 -77 -102 -161 -275 -195
-401 -25 -92 -27 -116 -27 -290 -1 -230 12 -287 110 -483 112 -225 191 -334
431 -593 235 -255 314 -375 368 -564 43 -149 47 -235 42 -905 -4 -685 -4 -685
-68 -850 -61 -158 -134 -260 -372 -516 -175 -189 -238 -271 -337 -440 -77
-132 -127 -244 -157 -354 -28 -100 -25 -416 5 -522 132 -477 498 -812 1005
-920 148 -31 418 -31 567 1 131 28 232 62 335 113 435 216 696 621 698 1078 0
193 -29 309 -123 495 -108 213 -198 337 -424 580 -265 284 -357 444 -395 685
-7 40 -11 314 -11 716 0 702 2 740 54 891 56 165 135 279 358 520 188 203 207
227 290 353 100 151 193 345 224 465 21 82 26 124 26 235 2 209 -34 358 -128
541 -184 356 -540 606 -959 674 -111 18 -360 18 -470 -1z"/>
<path d="M2015 7379 c-161 -22 -351 -86 -490 -166 -428 -244 -671 -692 -625
-1150 14 -140 63 -289 142 -430 122 -220 186 -305 432 -569 233 -251 317 -395
363 -624 12 -61 16 -187 18 -685 1 -335 -2 -653 -7 -705 -11 -129 -41 -238
-93 -346 -56 -115 -131 -216 -281 -378 -246 -264 -310 -349 -432 -569 -108
-194 -163 -418 -147 -600 28 -314 138 -553 359 -772 188 -188 404 -301 687
-362 118 -25 418 -25 543 0 534 108 924 479 1028 977 27 129 21 377 -11 490
-31 107 -136 315 -229 455 -77 115 -117 163 -351 417 -210 229 -294 385 -332
617 -13 82 -13 1350 1 1434 35 224 125 391 331 615 231 252 273 302 350 416
93 137 199 348 230 456 32 113 38 361 11 490 -102 488 -475 852 -997 970 -105
24 -386 35 -500 19z"/>
</g>
</svg>
